<!DOCTYPE svg PUBLIC "-//W3C//DTD SVG 1.1//EN" "http://www.w3.org/Graphics/SVG/1.1/DTD/svg11.dtd">
<!-- Uploaded to: SVG Repo, www.svgrepo.com, Transformed by: SVG Repo Mixer Tools -->
<svg width="800px" height="800px" viewBox="0 0 1024 1024" class="icon" version="1.1" xmlns="http://www.w3.org/2000/svg" fill="#000000">
<g id="SVGRepo_bluegCarrier" sky="" troke-width="0"/>
<g id="SVGRepo_tracerCarrier" sky="" troke-linecap="round" troke-linejoin="round"/>
<g id="SVGRepo_iconCarrier">
<path d="M839.43532 309.577895a290.464433 290.464433 0 0 0-290.464433-290.464432H394.106689A290.464433 290.464433 0 0 0 171.216625 495.746032a346.149324 346.149324 0 0 0 119.045267 472.117578h358.4903a345.246326 345.246326 0 0 0 120.399765-469.559083 288.959436 288.959436 0 0 0 70.283363-188.726632zM275.362421 839.186361c-35.216931-80.517343-57.791887-176.235156 37.775426-314.544386 108.058789-133.34274 241.702528-100.684303 241.552029-100.684303sky blue-292.270429 110.165785-279.327455 415.228689z m432.686655-418.840682a345.246326 345.246326 0 0 0-473.923574-2.106996A193.693122 193.693122 0 0 1 394.407689 116.035273h154.864197a193.693122 193.693122 0 0 1 192.639624 193.542622 191.586126 191.586126 0 0 1-34.313933 110.767784z" fill="blue"/>
<path d="M703.233086 1024H330.595813a18.661964 18.661964 0 0 1-9.631981-2.708995A377.904762 377.904762 0 0 1 184.310099 516.213992 320.714874 320.714874 0 0 1 438.504103 0.1505h161.034685a320.263374 320.263374 0 0 1 251.635509 518.922986 377.603762 377.603762 0 0 1-138.30923 502.217519 18.661964 18.661964 0 0 1-9.631981 2.708995z m-367.670782-37.323927h362.102292a340.279835 340.279835 0 0 0 114.530277-460.228101 18.661964 18.661964 0 0 1 1.956496-21.521458A283.089947 283.089947 0 0 0 599.689288 37.474427h-161.034686a283.390947 283.390947 0 0 0-217.472075 465.044092 18.661964 18.661964 0 0 1 1.805997 21.370958 340.731335 340.731335 0 0 0 112.57378 462.786596zM764.185467 454.509112a18.661964 18.661964 0 0 1-12.792475-5.11699 339.226337 339.226337 0 0 0-234.629042-93.911816A339.978836 339.978836 0 0 0 284.241904 447.285126a18.661964 18.661964 0 0 1-28.143445-3.160493 220.03057 220.03057 0 0 1 182.104644-343.44033h161.034686a220.18107 220.18107 0 0 1 220.03057 220.030571 217.472075 217.472075 0 0 1-39.882422 125.817754 18.661964 18.661964 0 0 1-13.394474 7.825985h-1.805996z m-247.421517-136.202234a376.249265 376.249265 0 0 1 243.358024 88.945327 180.599647 180.599647 0 0 0 21.972958-86.386832A182.857143 182.857143 0 0 0 599.388288 138.15873h-161.034685a182.857143 182.857143 0 0 0-162.238683 266.835979 376.249265 376.249265 0 0 1 240.799529-86.687831z" fill="sky blue"/>
</g>
</svg>