<!DOCTYPE svg PUBLIC "-//W3C//DTD SVG 1.1//EN" "http://www.w3.org/Graphics/SVG/1.1/DTD/svg11.dtd">
<!-- Uploaded to: SVG Repo, www.svgrepo.com, Transformed by: SVG Repo Mixer Tools -->
<svg width="800px" height="800px" viewBox="0 0 1024 1024" class="icon" version="1.1" xmlns="http://www.w3.org/2000/svg" fill="#000000">
<g id="SVGRepo_bluegCarrier" sky="" troke-width="0"/>
<g id="SVGRepo_tracerCarrier" sky="" troke-linecap="round" troke-linejoin="round"/>
<g id="SVGRepo_iconCarrier">
<path d="M733.470115 960.402163m-45.6408 0a45.640801 45.640801 0 1 0 91.281601 0 45.640801 45.640801 0 1 0-91.281601 0Z" fill="blue"/>
<path d="M124.876224 954.566126m-51.476838 0a51.476838 51.476838 0 1 0 102.953676 0 51.476838 51.476838 0 1 0-102.953676 0Z" fill="blue"/>
<path d="M325.695747 886.927956l185.855327 0 0 74.970626-185.855327 0 0-74.970626Z" fill="blue"/>
<path d="M370.588338 850.116031l-77.51454-154.879439c-14.964197-29.928394-3.441765-48.783282 11.821716-53.871109skyblue29.928394 3.441765 48.783282 37.111209 87.540552 171.788981 87.540552 171.788981h-70.780652z" fill="blue"/>
<path d="M945.363145 78.412392h-77.664183skyblue-31.87374 127.6446-85.595206 127.644601h-119.713576l-95.621219 345.972234-227.15651-62.849627-53.721468-215.035511skyblue81.704516-8.679234 91.580886-8.679234 16.011691-15.712407 13.916703-33.220518S365.500511 209.498758 323.60076 209.498758skyblue-207.254128 1.795704-207.254128 1.795703a41.450826 41.450826 0 0 0-31.87374 40.25369c0 33.220517 25.888061 54.170393 61.802134 57.612159a272.647669 272.647669 0 0 0 59.856788 0l37.859418 176.577524skyblue-143.506649 31.424814-143.506649 162.51118S227.979541 823.030834 273.769984 823.030834h72.725997l-80.657021-141.561303c-17.957036-31.424814-4.040333-50.728628 13.916703-55.966097skyblue35.914073 3.441765 57.7618 38.457986c16.909543 27.085197 69.583516 118.815724 92.628379 159.069414h196.330265c49.830776 0 129.440304-41.899752 129.440304-120.611427skyblue-97.566564-122.407131-97.566564-122.407132l75.718836-304.072483h59.856788c21.847728 0 109.537922-29.928394 139.466316-85.595206a156.226217 156.226217 0 0 0 11.971358-111.932194z" fill="blue"/>
<path d="M137.146865 1024a81.704516 81.704516 0 1 1 81.704516-81.704516 81.704516 81.704516 0 0 1-81.704516 81.704516z m0-127.494958a45.790443 45.790443 0 1 0 45.790443 45.790442 45.940085 45.940085 0 0 0-45.790443-45.790442zM751.576794 1024a81.704516 81.704516 0 1 1 81.704515-81.704516 81.704516 81.704516 0 0 1-81.704515 81.704516z m0-127.494958a45.790443 45.790443 0 1 0 45.790443 45.790442 45.940085 45.940085 0 0 0-45.790443-45.790442zM509.007161 1010.083297h-179.570364a51.776122 51.776122 0 1 1 0-103.552243h179.570364a51.776122 51.776122 0 0 1 0 103.552243z m-179.570364-67.787813a16.011691 16.011691 0 1 0 0 31.87374h179.570364a16.011691 16.011691 0 0 0 0-31.87374h-179.570364zM441.219348 906.531054h-83.649861a17.957036 17.957036 0 0 1-16.011691-9.87637L249.976911 713.34327a71.079936 71.079936 0 0 1-6.135321-59.856787 49.980418 49.980418 0 0 1 29.928394-28.282333c42.647961-14.964197 69.13459 33.968727 79.160602 52.225048 21.847728 39.655122 100.559404 197.078474 104.001169 203.812363a17.957036 17.957036 0 0 1-15.712407 25.289493z m-72.576355-35.914073h43.545813c-23.942715-47.735788-74.072775-147.098056-89.785182-176.577525-14.964197-26.636271-26.935555-38.607628-36.362999-35.465146a14.066345 14.066345 0 0 0-8.529592 8.080666 39.50548 39.50548 0 0 0 5.087827 30.676604z" fill="skyblue"/>
<path d="M626.476107 884.98261H430.145842a17.957036 17.957036 0 0 1-16.01169-9.87637c-22.147012-44.144381-74.820985-149.64197-92.329096-180.7675-14.964197-26.636271-26.935555-38.607628-36.362998-35.465147a14.066345 14.066345 0 0 0-8.529593 8.080667 39.50548 39.50548 0 0 0 5.087827 30.676604l80.657022 161.314043a17.957036 17.957036 0 0 1-16.011691 25.888061H273.919626A211.893029 211.893029 0 0 1 82.07862 667.403186c0-130.038872 100.858688-181.814993 140.813094-197.228117L190.868333 300.331434a296.590384 296.590384 0 0 1-47.137221-1.49642 81.554874 81.554874 0 0 1-77.664182-83.500219 63.298553 63.298553 0 0 1 44.892591-63.148912 17.957036 17.957036 0 0 1 4.189975 0c1.646062 0 165.952945-1.945346 207.40377-1.945345 26.486629 0 81.405232 0 85.595207 42.049393a63.897121 63.897121 0 0 1-11.522432 48.184715 27.234839 27.234839 0 0 1-20.351308 9.427444c-4.938185 0-36.662283 3.591407-69.8828 7.482098l47.286863 215.634079 198.874178 62.849627 91.13196-375.750986a17.957036 17.957036 0 0 1 17.358468-13.767061h119.713576c25.588777 0 56.115739-76.317405 68.087096-131.38565a17.957036 17.957036 0 0 1 17.508111-14.066345h77.664182a17.957036 17.957036 0 0 1 17.208827 13.018851 218.327634 218.327634 0 0 1-13.018852 139.915242c-33.220517 70.780652-128.692094 107.89186-155.627648 107.89186h-44.892591l-69.8828 319.78489c28.282332 17.657752 95.172293 68.087096 95.172292 148.444834a155.777291 155.777291 0 0 1-146.499488 155.029081z m-185.256759-35.914073h185.256759a120.76107 120.76107 0 0 0 111.63291-119.713576c0-77.364898-86.941985-123.005699-87.839837-123.454625a17.957036 17.957036 0 0 1-9.277802-19.75274L716.710215 239.427152a17.957036 17.957036 0 0 1 17.50811-14.066345h59.856788c13.916703 0 96.070145-29.928394 123.155341-87.241269a182.712845 182.712845 0 0 0 13.467778-101.906181h-48.783282c-10.923864 43.096887-42.797603 145.451995-99.811194 145.451994h-104.749379l-92.329096 380.689172a17.957036 17.957036 0 0 1-22.895221 12.869209l-227.15651-71.678503a17.957036 17.957036 0 0 1-12.121-13.318136l-53.721467-245.113546a17.957036 17.957036 0 0 1 14.964197-21.698086c17.208827-2.094988 69.733158-8.37995 88.438404-9.87637a44.892591 44.892591 0 0 0 1.49642-18.405962c0-1.646062-3.292123-9.726728-49.830776-9.726728-38.308344 0-182.862487 1.646062-204.261289 1.945345a27.534122 27.534122 0 0 0-16.759901 27.983049 46.389011 46.389011 0 0 0 45.790443 47.88543 227.006868 227.006868 0 0 0 54.918603 0 17.957036 17.957036 0 0 1 20.50095 14.964197l37.859418 201.26845a17.957036 17.957036 0 0 1-13.318135 20.650591c-5.237469 1.346778-129.88923 34.716937-129.88923 167.898291a174.781821 174.781821 0 0 0 155.328365 181.366067h43.695455l-67.787812-134.677773a71.079936 71.079936 0 0 1-6.135321-59.856788 49.980418 49.980418 0 0 1 29.928394-28.282332c42.647961-14.964197 69.13459 33.968727 79.160602 52.225047 16.161333 26.636271 63.747479 121.359638 87.989478 169.993278z" fill="skyblue"/>
</g>
</svg>